<svg viewBox="0 0 655 655" xmlns="http://www.w3.org/2000/svg"><path d="m643.885 327.337c0 173.653-142.895 316.548-316.548 316.548s-316.547-142.895-316.547-316.548 142.894-316.547 316.547-316.547 316.548 142.894 316.548 316.547z" fill="#fff"/><g fill="#003089"><path d="m535.546 569.229v-10.542a165.175 165.175 0 0 0 -.83-16.53 162.608 162.608 0 0 0 -1.021-8.087 162.537 162.537 0 0 0 -3.208-15.767 160.35 160.35 0 0 0 -26.891-56.199 160.711 160.711 0 0 0 -15.17-17.525 161.797 161.797 0 0 0 -11.437-10.391 160.55 160.55 0 0 0 -54.624-29.503 160.967 160.967 0 0 0 -15.475-3.96 161.139 161.139 0 0 0 -16.042-2.435 164.165 164.165 0 0 0 -16.53-.829h-87.131a164.165 164.165 0 0 0 -24.617 1.851 161.178 161.178 0 0 0 -23.43 5.373 161.353 161.353 0 0 0 -7.499 2.527 160.699 160.699 0 0 0 -21.427 9.652 161.065 161.065 0 0 0 -13.292 8.058 160.515 160.515 0 0 0 -12.406 9.266 161.67 161.67 0 0 0 -11.438 10.391 160.823 160.823 0 0 0 -10.392 11.438 161.636 161.636 0 0 0 -9.265 12.406 160.428 160.428 0 0 0 -8.058 13.292 160.483 160.483 0 0 0 -6.772 14.099 159.083 159.083 0 0 0 -5.406 14.827 160.35 160.35 0 0 0 -5.374 23.429 162.608 162.608 0 0 0 -1.642 16.296c-.139 2.756-.209 5.53-.209 8.321v9.679a316.622 316.622 0 0 0 205.485 75.892 316.625 316.625 0 0 0 204.101-75.029z"/><path d="m513.348 355.291c0-46.939-38.109-85.047-85.047-85.047h-196.804c-46.939 0-85.047 38.108-85.047 85.047v144.712c0 46.938 38.108 85.047 85.047 85.047h196.804c46.938 0 85.047-38.109 85.047-85.047z"/><path d="m584.256 193.361c7.063-2.765 8.904-6.533 4.11-8.409l-242.669-94.984c-4.794-1.876-14.421-1.156-21.483 1.609l-234.449 91.766c-7.063 2.764-8.904 6.532-4.11 8.409l242.669 94.984c4.794 1.876 14.421 1.155 21.483-1.609z"/></g><path d="m209.338 195.821c81.276-43.618 166.49-41.698 255.145 0l-.277 107.624c-88.09-45.586-172.308-40.79-253.761 0z" fill="#89ba17"/><path d="m372.749 484.893c-5.994-19.057-18.669-32.245-33.382-32.245-14.754 0-27.461 13.264-33.434 32.413l33.332 37.386z" fill="#89ba17"/><circle cx="440.965" cy="373.268" fill="#fff" r="107.986"/><path d="m423.801 484.183c-23.756-4.48-43.904-15.028-60.588-31.723-15.762-15.77-25.795-34.422-30.61-56.903-2.692-12.569-2.668-32.175.054-45.022 4.577-21.598 15.907-40.816 30.636-56.655 8.312-8.938 31.999-29.153 80.838-35.701 0 0 19.547-16.754 30.64-18.893 20.151-7.039 29.505-9.058 32.181-8.549 2.676.51-1.326 3.546-7.887 6.616l-34.859 19.452 19.622 4.788c24.575-11.294 33.094-23.797 91.41-46.151 12.145-4.403 5.68 2.448-11.562 12.896-14.351 8.698-38.115 20.258-46.783 26.458-8.124 5.811-19.355 15.984-19.355 15.984 4.678 7.203 4.115 4.16 7.999 3.883 33.765-4.479 65.67-20.256 95.057-47.003 6.682-6.082 10.165-7.888 15.209-7.888 7.746 0 6.918 4.911-2.329 13.816-19.023 18.32-44.825 35.633-68.19 45.755-9.319 4.037-24.32 9.267-26.582 9.267-.676 0-1.229.115-1.229.256 0 .14 2.315 2.635 5.144 5.544 24.012 24.693 35.923 60.072 31.395 93.255-3.533 25.887-14.088 47.444-32.007 65.362-14.361 14.362-32.109 24.283-52.893 29.568-11.257 2.863-34.274 3.67-45.311 1.588zm34.365-23.156c28.101-4.06 55.043-24.646 66.748-50.999 19.5-43.904 1.095-95.031-41.822-116.174-35.282-17.381-75.973-10.407-103.731 17.779-11.963 12.147-19.949 26.926-23.581 43.637-1.957 9.002-2.003 27.179-.091 35.807 6.133 27.67 23.173 49.59 48.07 61.84 17.613 8.666 33.83 11.083 54.406 8.11z" fill="#003089"/><ellipse cx="444.731" cy="368.198" rx="33.194" ry="33.038"/><ellipse cx="417.3" cy="348.999" fill="#fff" rx="12.635" ry="12.199"/><circle cx="228.574" cy="373.268" fill="#fff" r="107.986"/><path d="m245.738 484.183c23.757-4.48 43.904-15.028 60.589-31.723 15.761-15.77 25.795-34.422 30.609-56.903 2.692-12.569 2.669-32.175-.054-45.022-4.577-21.598-15.907-40.816-30.635-56.655-8.313-8.938-32-29.153-80.839-35.701 0 0-19.546-16.754-30.64-18.893-20.151-7.039-29.504-9.058-32.18-8.549-2.676.51 1.325 3.546 7.886 6.616l34.859 19.452-19.622 4.788c-24.574-11.294-33.094-23.797-91.41-46.151-12.145-4.403-5.679 2.448 11.562 12.896 14.351 8.698 38.116 20.258 46.783 26.458 8.124 5.811 19.355 15.984 19.355 15.984-4.678 7.203-4.115 4.16-7.999 3.883-33.764-4.479-65.67-20.256-95.057-47.003-6.682-6.082-10.165-7.888-15.209-7.888-7.746 0-6.918 4.911 2.329 13.816 19.023 18.32 44.825 35.633 68.19 45.755 9.319 4.037 24.321 9.267 26.583 9.267.675 0 1.228.115 1.228.256 0 .14-2.314 2.635-5.143 5.544-24.013 24.693-35.924 60.072-31.396 93.255 3.533 25.887 14.089 47.444 32.007 65.362 14.362 14.362 32.11 24.283 52.893 29.568 11.257 2.863 34.275 3.67 45.312 1.588zm-34.365-23.156c-28.1-4.06-55.043-24.646-66.748-50.999-19.5-43.904-1.095-95.031 41.822-116.174 35.282-17.381 75.973-10.407 103.731 17.779 11.963 12.147 19.949 26.926 23.582 43.637 1.956 9.002 2.002 27.179.09 35.807-6.133 27.67-23.172 49.59-48.07 61.84-17.613 8.666-33.83 11.083-54.406 8.11z" fill="#003089"/><ellipse cx="224.808" cy="368.198" rx="33.194" ry="33.038"/><ellipse cx="200.609" cy="348.999" fill="#fff" rx="12.635" ry="12.199"/><path d="m515.941 474.764c-11.553.503-18.223 29.283-16.63 68.513.588 14.493 2.345 30.448 4.778 46.336a316.575 316.575 0 0 0 40.693-32.478c.001-.476.005-.943.005-1.421 0-26.393-1.62-33.853-3.51-47.464-9.716-23.91-18.405-33.788-25.336-33.486zm-368.711 1.634c-6.932-.302-15.621 9.576-25.337 33.486-1.889 13.611-3.51 21.071-3.51 47.464 0 2.501.012 4.977.029 7.44a316.588 316.588 0 0 0 40.13 29.903c2.712-17.017 4.687-34.239 5.318-49.781 1.593-39.229-5.078-68.01-16.63-68.512z" fill="#89ba17"/><path d="m643.885 327.337c0 173.653-142.895 316.548-316.548 316.548s-316.547-142.895-316.547-316.548 142.894-316.547 316.547-316.547 316.548 142.894 316.548 316.547z" fill="none" stroke="#000" stroke-width="5.23"/></svg>